<svg width="20" height="17" viewBox="0 0 20 17" fill="none" xmlns="http://www.w3.org/2000/svg">
<path d="M20 2.43789C19.2857 2.74192 18.4694 2.94461 17.6531 3.04596C18.4694 2.53924 19.1837 1.72849 19.4898 0.816388C18.6735 1.32311 17.8572 1.62714 16.8367 1.82983C16.1225 1.01908 15 0.512352 13.8775 0.512352C11.6326 0.512352 9.79591 2.33655 9.79591 4.56612C9.79591 4.87015 9.79592 5.17418 9.89796 5.47821C6.53061 5.27552 3.46938 3.65402 1.42857 1.22176C1.12244 1.82982 0.918362 2.53923 0.918362 3.24864C0.918362 4.66746 1.63265 5.88359 2.7551 6.593C2.04081 6.593 1.42857 6.39031 0.918362 6.08628C0.918362 8.01182 2.34693 9.73466 4.18367 10.0387C3.87754 10.14 3.46939 10.14 3.06123 10.14C2.7551 10.14 2.55102 10.14 2.2449 10.0387C2.7551 11.6602 4.28572 12.8763 6.12245 12.8763C4.69388 13.9911 2.95918 14.5992 1.02041 14.5992C0.714286 14.5992 0.408163 14.5992 0 14.4979C1.83674 15.6126 3.97959 16.322 6.32653 16.322C13.8776 16.322 17.9592 10.14 17.9592 4.7688V4.26208C18.7755 3.95805 19.4898 3.24864 20 2.43789Z" fill="white"/>
</svg>
