<svg width="17" height="18" viewBox="0 0 17 18" fill="none" xmlns="http://www.w3.org/2000/svg">
<path d="M14.5808 0.524242H2.41923C1.04615 0.524242 0 1.55795 0 2.9147V14.9316C0 16.2883 1.04615 17.322 2.41923 17.322H14.5808C15.9538 17.322 17 16.2883 17 14.9316V2.9147C17 1.55795 15.9538 0.524242 14.5808 0.524242ZM8.5 13.9625C11.3115 13.9625 13.6 11.7659 13.6 9.11697C13.6 8.66472 13.5346 8.14786 13.4038 7.76022H14.8423V14.6086C14.8423 14.9316 14.5808 15.2546 14.1885 15.2546H2.81154C2.48462 15.2546 2.15769 14.9962 2.15769 14.6086V7.69561H3.66154C3.53077 8.14786 3.46539 8.60011 3.46539 9.05236C3.4 11.7659 5.68846 13.9625 8.5 13.9625ZM8.5 12.0243C6.66923 12.0243 5.23077 10.6029 5.23077 8.85854C5.23077 7.11415 6.66923 5.6928 8.5 5.6928C10.3308 5.6928 11.7692 7.11415 11.7692 8.85854C11.7692 10.6675 10.3308 12.0243 8.5 12.0243ZM14.7769 5.11133C14.7769 5.49898 14.45 5.82201 14.0577 5.82201H12.2269C11.8346 5.82201 11.5077 5.49898 11.5077 5.11133V3.36695C11.5077 2.97931 11.8346 2.65627 12.2269 2.65627H14.0577C14.45 2.65627 14.7769 2.97931 14.7769 3.36695V5.11133Z" fill="white"/>
</svg>
