<svg width="19" height="21" viewBox="0 0 19 21" fill="none" xmlns="http://www.w3.org/2000/svg">
<path d="M16.7743 0.536137H2.22571C0.998857 0.536137 0 1.44519 0 2.57164V15.9308C0 17.0573 0.998857 17.9663 2.22571 17.9663H14.5377L13.9623 16.1383L15.352 17.3142L16.6657 18.4209L19 20.2983V2.57164C19 1.44519 18.0011 0.536137 16.7743 0.536137ZM12.5834 13.4408C12.5834 13.4408 12.1926 13.0159 11.8669 12.6404C13.2891 12.2748 13.832 11.4646 13.832 11.4646C13.3869 11.7314 12.9634 11.9191 12.5834 12.0476C12.0406 12.2551 11.5194 12.3934 11.0091 12.4725C9.96686 12.6503 9.01143 12.6009 8.19714 12.4626C7.57829 12.3539 7.04629 12.1958 6.60114 12.0377C6.35143 11.9488 6.08 11.8401 5.80857 11.7017C5.776 11.682 5.74343 11.6721 5.71086 11.6523C5.68914 11.6425 5.67829 11.6326 5.66743 11.6227C5.472 11.5239 5.36343 11.4547 5.36343 11.4547C5.36343 11.4547 5.88457 12.2452 7.26343 12.6207C6.93771 12.9962 6.536 13.4408 6.536 13.4408C4.13657 13.3716 3.22457 11.9389 3.22457 11.9389C3.22457 8.75718 4.788 6.17822 4.788 6.17822C6.35143 5.11107 7.83886 5.14071 7.83886 5.14071L7.94743 5.25928C5.99314 5.7731 5.092 6.5537 5.092 6.5537C5.092 6.5537 5.33086 6.43513 5.73257 6.26715C6.89429 5.80274 7.81714 5.67429 8.19714 5.64465C8.26229 5.63477 8.31657 5.62488 8.38171 5.62488C9.044 5.54584 9.79314 5.52607 10.5749 5.60512C11.6063 5.71381 12.7137 5.99048 13.8429 6.5537C13.8429 6.5537 12.9851 5.81262 11.1394 5.29881L11.2914 5.14071C11.2914 5.14071 12.7789 5.11107 14.3423 6.17822C14.3423 6.17822 15.9057 8.75718 15.9057 11.9389C15.9057 11.9389 14.9829 13.3716 12.5834 13.4408ZM7.53486 8.82635C6.916 8.82635 6.42743 9.3204 6.42743 9.92315C6.42743 10.5259 6.92686 11.0199 7.53486 11.0199C8.15371 11.0199 8.64229 10.5259 8.64229 9.92315C8.65314 9.3204 8.15371 8.82635 7.53486 8.82635ZM11.4977 8.82635C10.8789 8.82635 10.3903 9.3204 10.3903 9.92315C10.3903 10.5259 10.8897 11.0199 11.4977 11.0199C12.1166 11.0199 12.6051 10.5259 12.6051 9.92315C12.6051 9.3204 12.1166 8.82635 11.4977 8.82635Z" fill="white"/>
</svg>
